<?xml version="1.0" standalone="no"?>
<!DOCTYPE svg PUBLIC "-//W3C//DTD SVG 20010904//EN"
 "http://www.w3.org/TR/2001/REC-SVG-20010904/DTD/svg10.dtd">
<svg version="1.0" xmlns="http://www.w3.org/2000/svg"
 width="561.000000pt" height="349.000000pt" viewBox="0 0 561.000000 349.000000"
 preserveAspectRatio="xMidYMid meet">
<metadata>
Created by potrace 1.16, written by Peter Selinger 2001-2019
</metadata>
<g transform="translate(0.000000,349.000000) scale(0.100000,-0.100000)"
fill="#000000" stroke="none">
<path d="M2850 2594 c-269 -95 -277 -99 -296 -136 -12 -24 -20 -88 -11 -88 2
0 30 9 62 20 102 35 154 24 176 -38 9 -26 7 -39 -8 -69 -16 -34 -27 -41 -93
-65 -81 -28 -87 -38 -42 -75 35 -30 80 -29 172 2 l73 25 -6 -37 c-9 -56 -39
-78 -166 -124 -64 -23 -135 -50 -159 -60 -103 -44 -176 -139 -189 -247 l-6
-52 -198 0 -199 0 0 80 c0 51 -5 91 -14 109 -13 25 -82 81 -99 81 -4 0 -7 -85
-7 -188 0 -217 10 -269 62 -319 62 -58 59 -58 393 -64 328 -5 331 -6 435 -59
62 -32 146 -114 187 -185 19 -33 44 -96 56 -140 34 -137 5 -274 -90 -413 -60
-89 -56 -162 13 -207 50 -32 104 -17 248 68 71 42 135 77 141 77 24 0 48 -41
52 -87 5 -47 3 -50 -59 -120 l-63 -73 -73 0 c-106 0 -153 -25 -172 -89 l-9
-31 184 0 183 0 7 38 c14 75 77 137 158 157 l27 7 0 164 0 164 -27 11 c-42 15
-102 79 -113 119 -19 66 -15 75 33 77 83 3 160 52 200 127 22 40 22 48 25 531
3 484 3 490 24 512 34 36 94 27 118 -18 9 -17 6 -26 -20 -56 -40 -45 -50 -72
-50 -136 0 -92 66 -173 150 -184 l42 -6 -4 204 c-3 193 -4 206 -26 242 -77
122 -257 114 -323 -15 -18 -35 -19 -66 -19 -495 0 -252 -5 -476 -10 -498 -17
-76 -101 -109 -171 -68 -29 17 -49 57 -123 249 l-28 70 113 380 c111 374 112
380 113 484 1 84 -4 120 -22 179 -28 89 -86 184 -147 240 -46 43 -148 112
-162 110 -4 -1 -114 -39 -243 -85z"/>
<path d="M2067 2362 c-137 -177 -150 -200 -149 -268 0 -62 17 -96 69 -145 46
-44 253 -203 257 -198 1 2 11 27 21 54 23 64 65 125 111 163 l36 30 -151 116
-151 117 54 72 c29 40 56 84 60 99 6 28 -13 90 -32 102 -6 3 -62 -60 -125
-142z"/>
<path d="M2294 1046 c-134 -59 -85 -231 133 -467 65 -70 71 -43 -50 -234 l-83
-130 -84 -5 c-47 -3 -95 -11 -107 -18 -30 -16 -53 -51 -53 -79 l0 -23 199 0
199 0 116 186 c95 151 114 189 106 204 -15 28 -12 117 5 150 21 41 76 79 125
88 40 7 46 12 97 92 l53 84 -27 15 c-75 39 -210 92 -307 120 -87 25 -127 31
-200 31 -53 -1 -104 -6 -122 -14z"/>
</g>
</svg>
